REM DIRINDEX 1\3,1\2\4,1\2\5,1\2\6
REM DIRNAME cjc137,folder01,folder02,folder03,folder04,folder05
TITLE ""
FILE "094.mp3" MP3
  TRACK 01 AUDIO
    TITLE "4:cjc137_3867"
    INDEX 01 00:00:00
  TRACK 02 AUDIO
    TITLE "0:"
    INDEX 01 00:01:24
  TRACK 03 AUDIO
    TITLE "6:cjc137_3868"
    INDEX 01 00:01:30
  TRACK 04 AUDIO
    TITLE "0:"
    INDEX 01 00:02:42
  TRACK 05 AUDIO
    TITLE "5:cjc137_3869"
    INDEX 01 00:02:51
  TRACK 06 AUDIO
    TITLE "0:"
    INDEX 01 00:03:72
  TRACK 07 AUDIO
    TITLE "4:cjc137_3870"
    INDEX 01 00:05:07
  TRACK 08 AUDIO
    TITLE "0:"
    INDEX 01 00:06:30
  TRACK 09 AUDIO
    TITLE "6:cjc137_3871"
    INDEX 01 00:06:35
  TRACK 10 AUDIO
    TITLE "0:"
    INDEX 01 00:07:51
  TRACK 11 AUDIO
    TITLE "5:cjc137_3872"
    INDEX 01 00:07:56
  TRACK 12 AUDIO
    TITLE "0:"
    INDEX 01 00:09:06
  TRACK 13 AUDIO
    TITLE "4:cjc137_3873"
    INDEX 01 00:10:14
  TRACK 14 AUDIO
    TITLE "0:"
    INDEX 01 00:11:23
  TRACK 15 AUDIO
    TITLE "6:cjc137_3874"
    INDEX 01 00:11:27
  TRACK 16 AUDIO
    TITLE "0:"
    INDEX 01 00:12:48
  TRACK 17 AUDIO
    TITLE "5:cjc137_3875"
    INDEX 01 00:12:56
  TRACK 18 AUDIO
    TITLE "0:"
    INDEX 01 00:13:63
  TRACK 19 AUDIO
    TITLE "4:cjc137_3876"
    INDEX 01 00:14:70
  TRACK 20 AUDIO
    TITLE "0:"
    INDEX 01 00:16:02
  TRACK 21 AUDIO
    TITLE "6:cjc137_3877"
    INDEX 01 00:16:14
  TRACK 22 AUDIO
    TITLE "0:"
    INDEX 01 00:17:14
  TRACK 23 AUDIO
    TITLE "5:cjc137_3878"
    INDEX 01 00:17:21
  TRACK 24 AUDIO
    TITLE "0:"
    INDEX 01 00:18:29
  TRACK 25 AUDIO
    TITLE "4:cjc137_3879"
    INDEX 01 00:19:42
  TRACK 26 AUDIO
    TITLE "0:"
    INDEX 01 00:20:69
  TRACK 27 AUDIO
    TITLE "6:cjc137_3880"
    INDEX 01 00:21:00
  TRACK 28 AUDIO
    TITLE "0:"
    INDEX 01 00:22:36
  TRACK 29 AUDIO
    TITLE "5:cjc137_3881"
    INDEX 01 00:22:42
  TRACK 30 AUDIO
    TITLE "0:"
    INDEX 01 00:23:69
  TRACK 31 AUDIO
    TITLE "4:cjc137_3882"
    INDEX 01 00:25:01
  TRACK 32 AUDIO
    TITLE "0:"
    INDEX 01 00:26:26
  TRACK 33 AUDIO
    TITLE "6:cjc137_3883"
    INDEX 01 00:26:36
  TRACK 34 AUDIO
    TITLE "0:"
    INDEX 01 00:28:02
  TRACK 35 AUDIO
    TITLE "5:cjc137_3884"
    INDEX 01 00:28:08
  TRACK 36 AUDIO
    TITLE "0:"
    INDEX 01 00:29:33
  TRACK 37 AUDIO
    TITLE "4:cjc137_3885"
    INDEX 01 00:30:46
  TRACK 38 AUDIO
    TITLE "0:"
    INDEX 01 00:31:65
  TRACK 39 AUDIO
    TITLE "6:cjc137_3886"
    INDEX 01 00:31:73
  TRACK 40 AUDIO
    TITLE "0:"
    INDEX 01 00:33:05
  TRACK 41 AUDIO
    TITLE "5:cjc137_3887"
    INDEX 01 00:33:13
  TRACK 42 AUDIO
    TITLE "0:"
    INDEX 01 00:34:36
  TRACK 43 AUDIO
    TITLE "4:cjc137_3888"
    INDEX 01 00:35:43
  TRACK 44 AUDIO
    TITLE "0:"
    INDEX 01 00:36:44
  TRACK 45 AUDIO
    TITLE "6:cjc137_3889"
    INDEX 01 00:36:50
  TRACK 46 AUDIO
    TITLE "0:"
    INDEX 01 00:37:57
  TRACK 47 AUDIO
    TITLE "5:cjc137_3890"
    INDEX 01 00:37:63
  TRACK 48 AUDIO
    TITLE "0:"
    INDEX 01 00:38:65
  TRACK 49 AUDIO
    TITLE "4:cjc137_3891"
    INDEX 01 00:39:72
  TRACK 50 AUDIO
    TITLE "0:"
    INDEX 01 00:41:12
  TRACK 51 AUDIO
    TITLE "6:cjc137_3892"
    INDEX 01 00:41:22
  TRACK 52 AUDIO
    TITLE "0:"
    INDEX 01 00:42:37
  TRACK 53 AUDIO
    TITLE "5:cjc137_3893"
    INDEX 01 00:42:39
  TRACK 54 AUDIO
    TITLE "0:"
    INDEX 01 00:43:54
  TRACK 55 AUDIO
    TITLE "4:cjc137_3894"
    INDEX 01 00:44:67
  TRACK 56 AUDIO
    TITLE "0:"
    INDEX 01 00:46:06
  TRACK 57 AUDIO
    TITLE "6:cjc137_3895"
    INDEX 01 00:46:13
  TRACK 58 AUDIO
    TITLE "0:"
    INDEX 01 00:47:05
  TRACK 59 AUDIO
    TITLE "5:cjc137_3896"
    INDEX 01 00:47:17
  TRACK 60 AUDIO
    TITLE "0:"
    INDEX 01 00:48:32
  TRACK 61 AUDIO
    TITLE "4:cjc137_3897"
    INDEX 01 00:49:39
  TRACK 62 AUDIO
    TITLE "0:"
    INDEX 01 00:50:56
  TRACK 63 AUDIO
    TITLE "6:cjc137_3898"
    INDEX 01 00:50:62
  TRACK 64 AUDIO
    TITLE "0:"
    INDEX 01 00:52:00
  TRACK 65 AUDIO
    TITLE "5:cjc137_3899"
    INDEX 01 00:52:04
  TRACK 66 AUDIO
    TITLE "0:"
    INDEX 01 00:53:21
  TRACK 67 AUDIO
    TITLE "4:cjc137_3900"
    INDEX 01 00:54:32
  TRACK 68 AUDIO
    TITLE "0:"
    INDEX 01 00:55:38
  TRACK 69 AUDIO
    TITLE "6:cjc137_3901"
    INDEX 01 00:55:50
  TRACK 70 AUDIO
    TITLE "0:"
    INDEX 01 00:56:57
  TRACK 71 AUDIO
    TITLE "5:cjc137_3902"
    INDEX 01 00:56:67
  TRACK 72 AUDIO
    TITLE "0:"
    INDEX 01 00:57:74
  TRACK 73 AUDIO
    TITLE "4:cjc137_3903"
    INDEX 01 00:59:12
  TRACK 74 AUDIO
    TITLE "0:"
    INDEX 01 01:00:17
  TRACK 75 AUDIO
    TITLE "6:cjc137_3904"
    INDEX 01 01:00:41
  TRACK 76 AUDIO
    TITLE "0:"
    INDEX 01 01:01:44
  TRACK 77 AUDIO
    TITLE "5:cjc137_3905"
    INDEX 01 01:01:52
  TRACK 78 AUDIO
    TITLE "0:"
    INDEX 01 01:02:54
  TRACK 79 AUDIO
    TITLE "4:cjc137_3906"
    INDEX 01 01:04:07
  TRACK 80 AUDIO
    TITLE "0:"
    INDEX 01 01:05:17
  TRACK 81 AUDIO
    TITLE "6:cjc137_3907"
    INDEX 01 01:05:30
  TRACK 82 AUDIO
    TITLE "0:"
    INDEX 01 01:06:26
  TRACK 83 AUDIO
    TITLE "5:cjc137_3908"
    INDEX 01 01:06:34
  TRACK 84 AUDIO
    TITLE "0:"
    INDEX 01 01:07:45
